<?xml version="1.0" encoding="UTF-8"?>
<svg width="214px" height="214px" viewBox="0 0 214 214" version="1.1" xmlns="http://www.w3.org/2000/svg" xmlns:xlink="http://www.w3.org/1999/xlink">
    <!-- Generator: Sketch 52.5 (67469) - http://www.bohemiancoding.com/sketch -->
    <title>new5k</title>
    <desc>Created with Sketch.</desc>
    <g id="Page-1" stroke="none" stroke-width="1" fill="none" fill-rule="evenodd">
        <g id="new5k">
            <polygon id="Path" fill="#F5F5F5" fill-rule="nonzero" points="0 204 204 2.97317726e-13 100 1.42108547e-14 0 100"></polygon>
            <polygon id="Path-2" fill="#383521" fill-rule="nonzero" points="214 10 204 0 194 10"></polygon>
            <polygon id="Path-3" fill="#383521" fill-rule="nonzero" points="10 194 10 214 0 204"></polygon>
            <path d="M51.8234806,55.8823864 L51.3234806,57.9448864 C50.7609777,57.9657198 49.8339037,58.1323848 48.5422306,58.4448864 C47.2505574,58.757388 46.3130668,59.0803014 45.7297306,59.4136364 C44.8338927,59.9344723 44.0995251,60.929254 43.5266056,62.3980114 C42.953686,63.8667687 42.3963999,65.7469583 41.8547306,68.0386364 L34.3234806,100.663636 L31.5109806,100.663636 L13.3234806,63.2261364 L7.76098056,87.4136364 C7.51097931,88.4969751 7.30264806,89.5907142 7.13598056,90.6948864 C6.96931306,91.7990586 6.88598056,92.694883 6.88598056,93.3823864 C6.88598056,94.1115567 6.9588965,94.7000925 7.10473056,95.1480114 C7.25056462,95.5959303 7.44847931,95.9657183 7.69848056,96.2573864 C8.052649,96.6948886 8.93805681,97.1115511 10.3547306,97.5073864 C11.7714043,97.9032217 12.7088949,98.1219695 13.1672306,98.1636364 L12.6984806,100.226136 L-5.48901944,100.226136 L-5.02026944,98.1636364 C-4.332766,98.1011361 -3.32235944,97.8980131 -1.98901944,97.5542614 C-0.655679438,97.2105097 0.229728375,96.882388 0.667230562,96.5698864 C1.50056806,96.0073836 2.20889431,95.0959344 2.79223056,93.8355114 C3.37556681,92.5750884 3.97972744,90.549067 4.60473056,87.7573864 L9.57348056,66.2573864 C9.71931462,65.569883 9.82348025,64.9813472 9.88598056,64.4917614 C9.94848087,64.0021756 9.97973056,63.5490551 9.97973056,63.1323864 C9.97973056,62.6323839 9.92243947,62.1584303 9.80785556,61.7105114 C9.69327166,61.2625925 9.42764931,60.7886389 9.01098056,60.2886364 C8.28181025,59.4552989 7.39119416,58.8771797 6.33910556,58.5542614 C5.28701697,58.2313431 4.34431806,58.0282201 3.51098056,57.9448864 L4.01098056,55.8823864 L16.7297306,55.8823864 L33.6047306,90.5386364 L38.6984806,68.4448864 C38.9484818,67.3407142 39.1568131,66.2626 39.3234806,65.2105114 C39.4901481,64.1584228 39.5734806,63.2573901 39.5734806,62.5073864 C39.5734806,61.819883 39.5057729,61.2417637 39.3703556,60.7730114 C39.2349382,60.304259 39.0318152,59.9553042 38.7609806,59.7261364 C38.2609781,59.2886342 37.4172365,58.9084297 36.2297306,58.5855114 C35.0422246,58.2625931 34.0630677,58.0490536 33.2922306,57.9448864 L33.7922306,55.8823864 L51.8234806,55.8823864 Z M89.3234806,55.8823864 L86.8547306,66.5698864 L84.5109806,66.5698864 C84.3859799,64.361542 83.9224429,62.5073939 83.1203556,61.0073864 C82.3182682,59.5073789 81.240154,58.6532208 79.8859806,58.4448864 C79.2609774,58.3615526 78.5005684,58.2990533 77.6047306,58.2573864 C76.7088927,58.2157195 75.6984862,58.1948864 74.5734806,58.1948864 L67.4484806,58.1948864 L63.3547306,76.0386364 L68.3547306,76.0386364 C69.8964049,76.0386364 71.0943096,75.8875962 71.9484806,75.5855114 C72.8026515,75.2834265 73.5630606,74.7782233 74.2297306,74.0698864 C74.8547337,73.4448833 75.4588943,72.5855169 76.0422306,71.4917614 C76.6255668,70.3980059 77.0422293,69.4761401 77.2922306,68.7261364 L79.6359806,68.7261364 L75.6359806,86.0698864 L73.3234806,86.0698864 C73.3234806,85.8407186 73.3391054,85.5646797 73.3703556,85.2417614 C73.4016057,84.9188431 73.4172306,84.5698883 73.4172306,84.1948864 C73.4172306,83.4240492 73.3651477,82.6844733 73.2609806,81.9761364 C73.1568134,81.2677995 73.0109815,80.7469714 72.8234806,80.4136364 C72.3859784,79.6011323 71.7609846,79.0698876 70.9484806,78.8198864 C70.1359765,78.5698851 69.0734871,78.4448864 67.7609806,78.4448864 L62.7609806,78.4448864 L59.6672306,91.9761364 C59.5422299,92.4761389 59.4380643,93.0178001 59.3547306,93.6011364 C59.2713968,94.1844726 59.2297306,94.6428014 59.2297306,94.9761364 C59.2297306,96.1219755 59.6411848,96.8823845 60.4641056,97.2573864 C61.2870263,97.6323883 63.1047165,97.8198864 65.9172306,97.8198864 C69.4172481,97.8198864 71.7922243,97.6948876 73.0422306,97.4448864 C74.2922368,97.1948851 75.2193109,96.8303055 75.8234806,96.3511364 C77.0109865,95.3927983 78.4015976,93.8615636 79.9953556,91.7573864 C81.5891135,89.6532092 82.6568112,88.1219745 83.1984806,87.1636364 L85.4484806,87.1636364 L81.6047306,100.226136 L44.7922306,100.226136 L45.2609806,98.1636364 C45.9068171,98.1219695 46.7609752,98.0334287 47.8234806,97.8980114 C48.8859859,97.762594 49.6047287,97.6219705 49.9797306,97.4761364 C50.7089009,97.2053017 51.266187,96.7990558 51.6516056,96.2573864 C52.0370242,95.715717 52.3026465,95.0803067 52.4484806,94.3511364 L59.8859806,62.1636364 C59.9276474,61.9969689 59.9641054,61.8094708 59.9953556,61.6011364 C60.0266057,61.392802 60.0422306,61.1948873 60.0422306,61.0073864 C60.0422306,60.5907176 59.9536898,60.2157214 59.7766056,59.8823864 C59.5995213,59.5490514 59.2818162,59.2678042 58.8234806,59.0386364 C58.3234781,58.7678017 57.6151518,58.5282208 56.6984806,58.3198864 C55.7818093,58.111552 55.0630665,57.9865533 54.5422306,57.9448864 L55.0109806,55.8823864 L89.3234806,55.8823864 Z M157.510981,55.8823864 L157.042231,57.9448864 C156.521395,57.9657198 155.885984,58.0855103 155.135981,58.3042614 C154.385977,58.5230125 153.688067,58.809468 153.042231,59.1636364 C152.18806,59.6428055 151.469317,60.1948833 150.885981,60.8198864 C150.302644,61.4448895 149.719317,62.2990476 149.135981,63.3823864 C146.990136,67.361573 144.078707,72.8094351 140.401606,79.7261364 C136.724504,86.6428376 132.9485,93.6636008 129.073481,100.788636 L126.292231,100.788636 L122.667231,66.6011364 L103.260981,100.788636 L100.510981,100.788636 C100.031811,91.3094223 99.6255656,83.3355437 99.2922306,76.8667614 C98.9588956,70.397979 98.7088981,65.4969864 98.5422306,62.1636364 C98.5005637,61.4969664 98.3755649,60.934472 98.1672306,60.4761364 C97.9588962,60.0178008 97.5526502,59.5490555 96.9484806,59.0698864 C96.5109784,58.715718 95.9536923,58.4500956 95.2766056,58.2730114 C94.5995188,58.0959272 93.9901499,57.9865533 93.4484806,57.9448864 L93.9172306,55.8823864 L111.760981,55.8823864 L111.292231,57.9448864 C108.813051,58.0907205 107.15161,58.3563428 106.307856,58.7417614 C105.464101,59.12718 105.042231,59.590717 105.042231,60.1323864 C105.042231,60.5490551 105.052647,61.1636323 105.073481,61.9761364 C105.094314,62.7886405 105.125564,63.6219655 105.167231,64.4761364 C105.229731,65.9136436 105.380771,68.8146562 105.620356,73.1792614 C105.85994,77.5438665 106.156812,83.0386033 106.510981,89.6636364 L125.135981,56.5073864 L128.010981,56.5073864 L131.729731,90.3823864 C134.33391,85.4031948 136.604721,80.981364 138.542231,77.1167614 C140.47974,73.2521587 142.20889,69.7782351 143.729731,66.6948864 C144.646402,64.7990436 145.28702,63.361558 145.651606,62.3823864 C146.016191,61.4032148 146.198481,60.7157217 146.198481,60.3198864 C146.198481,59.6532164 145.724527,59.1167634 144.776606,58.7105114 C143.828684,58.3042594 142.458906,58.0490536 140.667231,57.9448864 L141.135981,55.8823864 L157.510981,55.8823864 Z" id="path" fill="#FF00FF" transform="translate(76.010981, 78.335511) rotate(-45.000000) translate(-76.010981, -78.335511) "></path>
        </g>
    </g>
</svg>